{
	"patcher" : 	{
		"fileversion" : 1,
		"rect" : [ 81.0, 263.0, 489.0, 367.0 ],
		"bglocked" : 0,
		"defrect" : [ 81.0, 263.0, 489.0, 367.0 ],
		"openrect" : [ 0.0, 0.0, 0.0, 0.0 ],
		"openinpresentation" : 0,
		"default_fontsize" : 12.0,
		"default_fontface" : 0,
		"default_fontname" : "Arial",
		"gridonopen" : 0,
		"gridsize" : [ 15.0, 15.0 ],
		"gridsnaponopen" : 0,
		"toolbarvisible" : 1,
		"boxanimatetime" : 200,
		"imprint" : 0,
		"enablehscroll" : 1,
		"enablevscroll" : 1,
		"devicewidth" : 0.0,
		"boxes" : [ 			{
				"box" : 				{
					"maxclass" : "button",
					"numinlets" : 1,
					"numoutlets" : 1,
					"patching_rect" : [ 341.0, 287.0, 33.0, 33.0 ],
					"id" : "obj-1",
					"outlettype" : [ "bang" ]
				}

			}
, 			{
				"box" : 				{
					"maxclass" : "button",
					"numinlets" : 1,
					"numoutlets" : 1,
					"patching_rect" : [ 341.0, 224.0, 33.0, 33.0 ],
					"id" : "obj-2",
					"outlettype" : [ "bang" ]
				}

			}
, 			{
				"box" : 				{
					"maxclass" : "button",
					"numinlets" : 1,
					"numoutlets" : 1,
					"patching_rect" : [ 387.0, 156.0, 33.0, 33.0 ],
					"id" : "obj-3",
					"outlettype" : [ "bang" ]
				}

			}
, 			{
				"box" : 				{
					"maxclass" : "newobj",
					"text" : "delay 2000",
					"fontsize" : 12.0,
					"numinlets" : 2,
					"numoutlets" : 1,
					"patching_rect" : [ 387.0, 113.0, 69.0, 20.0 ],
					"id" : "obj-4",
					"fontname" : "Arial",
					"outlettype" : [ "bang" ]
				}

			}
, 			{
				"box" : 				{
					"maxclass" : "button",
					"numinlets" : 1,
					"numoutlets" : 1,
					"patching_rect" : [ 275.0, 156.0, 33.0, 33.0 ],
					"id" : "obj-5",
					"outlettype" : [ "bang" ]
				}

			}
, 			{
				"box" : 				{
					"maxclass" : "newobj",
					"text" : "delay 1500",
					"fontsize" : 12.0,
					"numinlets" : 2,
					"numoutlets" : 1,
					"patching_rect" : [ 275.0, 113.0, 69.0, 20.0 ],
					"id" : "obj-6",
					"fontname" : "Arial",
					"outlettype" : [ "bang" ]
				}

			}
, 			{
				"box" : 				{
					"maxclass" : "button",
					"numinlets" : 1,
					"numoutlets" : 1,
					"patching_rect" : [ 150.0, 156.0, 33.0, 33.0 ],
					"id" : "obj-7",
					"outlettype" : [ "bang" ]
				}

			}
, 			{
				"box" : 				{
					"maxclass" : "newobj",
					"text" : "delay 1000",
					"fontsize" : 12.0,
					"numinlets" : 2,
					"numoutlets" : 1,
					"patching_rect" : [ 150.0, 113.0, 69.0, 20.0 ],
					"id" : "obj-8",
					"fontname" : "Arial",
					"outlettype" : [ "bang" ]
				}

			}
, 			{
				"box" : 				{
					"maxclass" : "number",
					"triscale" : 0.9,
					"fontsize" : 12.0,
					"htextcolor" : [ 0.870588, 0.870588, 0.870588, 1.0 ],
					"bgcolor" : [ 0.866667, 0.866667, 0.866667, 1.0 ],
					"numinlets" : 1,
					"numoutlets" : 2,
					"patching_rect" : [ 80.0, 89.0, 35.0, 20.0 ],
					"id" : "obj-9",
					"fontname" : "Arial",
					"outlettype" : [ "int", "bang" ]
				}

			}
, 			{
				"box" : 				{
					"maxclass" : "button",
					"numinlets" : 1,
					"numoutlets" : 1,
					"patching_rect" : [ 36.0, 156.0, 33.0, 33.0 ],
					"id" : "obj-10",
					"outlettype" : [ "bang" ]
				}

			}
, 			{
				"box" : 				{
					"maxclass" : "button",
					"numinlets" : 1,
					"numoutlets" : 1,
					"patching_rect" : [ 36.0, 27.0, 27.0, 27.0 ],
					"id" : "obj-11",
					"outlettype" : [ "bang" ]
				}

			}
, 			{
				"box" : 				{
					"maxclass" : "newobj",
					"text" : "delay 500",
					"fontsize" : 12.0,
					"numinlets" : 2,
					"numoutlets" : 1,
					"patching_rect" : [ 36.0, 113.0, 63.0, 20.0 ],
					"id" : "obj-12",
					"fontname" : "Arial",
					"outlettype" : [ "bang" ]
				}

			}
 ],
		"lines" : [ 			{
				"patchline" : 				{
					"source" : [ "obj-9", 0 ],
					"destination" : [ "obj-12", 1 ],
					"hidden" : 0,
					"midpoints" : [  ]
				}

			}
, 			{
				"patchline" : 				{
					"source" : [ "obj-8", 0 ],
					"destination" : [ "obj-7", 0 ],
					"hidden" : 0,
					"midpoints" : [  ]
				}

			}
, 			{
				"patchline" : 				{
					"source" : [ "obj-6", 0 ],
					"destination" : [ "obj-5", 0 ],
					"hidden" : 0,
					"midpoints" : [  ]
				}

			}
, 			{
				"patchline" : 				{
					"source" : [ "obj-5", 0 ],
					"destination" : [ "obj-2", 0 ],
					"hidden" : 0,
					"midpoints" : [ 284.5, 206.0, 350.5, 206.0 ]
				}

			}
, 			{
				"patchline" : 				{
					"source" : [ "obj-4", 0 ],
					"destination" : [ "obj-3", 0 ],
					"hidden" : 0,
					"midpoints" : [  ]
				}

			}
, 			{
				"patchline" : 				{
					"source" : [ "obj-3", 0 ],
					"destination" : [ "obj-2", 0 ],
					"hidden" : 0,
					"midpoints" : [ 396.5, 206.0, 350.5, 206.0 ]
				}

			}
, 			{
				"patchline" : 				{
					"source" : [ "obj-2", 0 ],
					"destination" : [ "obj-1", 0 ],
					"hidden" : 0,
					"midpoints" : [  ]
				}

			}
, 			{
				"patchline" : 				{
					"source" : [ "obj-12", 0 ],
					"destination" : [ "obj-10", 0 ],
					"hidden" : 0,
					"midpoints" : [  ]
				}

			}
, 			{
				"patchline" : 				{
					"source" : [ "obj-11", 0 ],
					"destination" : [ "obj-8", 0 ],
					"hidden" : 0,
					"midpoints" : [ 45.5, 83.0, 159.5, 83.0 ]
				}

			}
, 			{
				"patchline" : 				{
					"source" : [ "obj-11", 0 ],
					"destination" : [ "obj-6", 0 ],
					"hidden" : 0,
					"midpoints" : [ 45.5, 83.0, 284.5, 83.0 ]
				}

			}
, 			{
				"patchline" : 				{
					"source" : [ "obj-11", 0 ],
					"destination" : [ "obj-4", 0 ],
					"hidden" : 0,
					"midpoints" : [ 45.5, 83.0, 396.5, 83.0 ]
				}

			}
, 			{
				"patchline" : 				{
					"source" : [ "obj-11", 0 ],
					"destination" : [ "obj-12", 0 ],
					"hidden" : 0,
					"midpoints" : [ 45.5, 83.0, 45.5, 83.0 ]
				}

			}
 ]
	}

}
